<svg width="31" height="30" viewBox="0 0 31 30" fill="none" xmlns="http://www.w3.org/2000/svg">
<path d="M30.0031 14.2931C30.0987 16.3202 29.7819 18.3457 29.072 20.2469C28.362 22.1481 27.2737 23.8854 25.8729 25.3538C24.472 26.8222 22.7878 27.9911 20.9221 28.7897C19.0564 29.5883 17.0481 30.0001 15.0187 30C14.2018 30.0008 13.3863 29.9342 12.5803 29.8008V22.9257H16.334C20.7869 22.9257 24.4734 19.3828 24.5521 15.0294V14.8859C24.5537 13.8273 24.3466 12.7789 23.9427 11.8005C23.5388 10.822 22.946 9.93276 22.1983 9.18352C21.4506 8.43427 20.5625 7.83973 19.5849 7.43388C18.6073 7.02803 17.5592 6.81882 16.5007 6.81821H8.87533C8.73555 6.81821 8.59715 6.84578 8.46805 6.89934C8.33894 6.9529 8.22167 7.03139 8.12294 7.13034C8.02421 7.22928 7.94597 7.34672 7.89269 7.47594C7.83941 7.60516 7.81215 7.74363 7.81245 7.8834V11.5884H16.4173C17.2601 11.5789 18.0753 11.8885 18.6993 12.455C19.3234 13.0215 19.7101 13.803 19.7819 14.6427C19.7819 14.7238 19.7819 14.8048 19.7819 14.8743C19.7801 15.7429 19.4334 16.5752 18.8182 17.1884C18.2029 17.8015 17.3693 18.1452 16.5007 18.144H12.5641V15.0364H8.85912C8.57661 15.0364 8.30568 15.1486 8.10591 15.3484C7.90615 15.5481 7.79393 15.8191 7.79393 16.1016V28.1567C5.49834 26.8993 3.57174 25.063 2.20555 22.8304C0.839348 20.5978 0.0811042 18.0466 0.00615266 15.4302C-0.0687989 12.8138 0.542151 10.2234 1.7783 7.91625C3.01444 5.6091 4.83276 3.66556 7.05259 2.27871C9.27243 0.891867 11.8165 0.109995 14.4321 0.010782C17.0476 -0.0884313 19.6436 0.498464 21.9621 1.71316C24.2806 2.92786 26.241 4.72807 27.6483 6.93495C29.0557 9.14182 29.8611 11.6785 29.9846 14.2931H30.0031Z" fill="white"/>
</svg>
